<svg width="36" height="28" viewBox="0 0 36 28" fill="none" xmlns="http://www.w3.org/2000/svg">
<path d="M12.8337 7.65326e-05C11.3665 7.65326e-05 10.1769 1.18453 10.1769 2.6465C10.1769 3.87759 11.0212 4.91081 12.1636 5.20716L9.44645 11.4814C10.667 11.7023 11.5917 12.7666 11.5917 14.0466C11.5917 15.4867 10.4209 16.655 8.97557 16.655C7.53013 16.655 6.35929 15.4866 6.35929 14.0466C6.35929 13.0228 6.95147 12.138 7.81273 11.711L3.90629 5.64478C4.52184 5.19912 4.9226 4.47778 4.9226 3.66111C4.9226 2.30628 3.82218 1.20613 2.46253 1.20613C1.10273 1.20613 0 2.30651 0 3.66111C0 5.01595 1.10273 6.11395 2.46238 6.11395C2.51881 6.11395 2.57523 6.11288 2.63059 6.10921L5.85228 23.4917H30.1455L33.3694 6.10921C33.4248 6.11288 33.4813 6.11403 33.5376 6.11403C34.8973 6.11403 36 5.01595 36 3.66119C36 2.30635 34.8973 1.2062 33.5376 1.2062C32.1779 1.2062 31.0752 2.30658 31.0752 3.66119C31.0751 4.4823 31.4816 5.207 32.1033 5.65213L28.209 11.7423C29.0376 12.1803 29.6025 13.0471 29.6025 14.0467C29.6025 15.4868 28.4317 16.6551 26.9864 16.6551C25.5411 16.6551 24.3701 15.4867 24.3701 14.0466C24.3701 12.7364 25.3389 11.6524 26.6018 11.4671L23.9304 5.22377C25.1047 4.94987 25.9797 3.90003 25.9797 2.6465C25.9797 1.18438 24.7901 7.65326e-05 23.3228 7.65326e-05C21.8552 7.65326e-05 20.6656 1.18453 20.6656 2.6465C20.6656 3.77965 21.3812 4.74579 22.3857 5.12331L18.9624 10.9407C20.0863 11.2868 20.9035 12.3276 20.9035 13.5609C20.9035 15.0768 19.6694 16.3056 18.148 16.3056C16.6266 16.3056 15.3948 15.0768 15.3948 13.5608C15.3948 12.4001 16.1177 11.4089 17.1389 11.0076L13.7468 5.1328C14.7642 4.7618 15.491 3.78876 15.491 2.64642C15.491 1.1843 14.3013 0 12.8339 0L12.8337 7.65326e-05ZM5.85005 24.9225C4.00669 25.2107 4.09264 27.9736 6.17201 27.9736H6.68371L6.68863 28H29.3121L29.3169 27.9737H29.9031C31.9045 27.9737 32.0464 25.2225 30.2347 24.9228H5.84997L5.85005 24.9225Z" fill="#FFEA2E"/>
</svg>
