<svg width="15" height="15" viewBox="0 0 15 15" fill="none" xmlns="http://www.w3.org/2000/svg">
<path d="M14.6238 6.58764L8.41069 0.376376C8.16829 0.135319 7.84029 0 7.49838 0C7.15648 0 6.82847 0.135319 6.58607 0.376376L0.376812 6.58764C0.135484 6.83 0 7.15804 0 7.5C0 7.84196 0.135484 8.17 0.376812 8.41236L6.58931 14.6236C6.83171 14.8647 7.15971 15 7.50162 15C7.84352 15 8.17153 14.8647 8.41393 14.6236L14.6232 8.41236C14.8645 8.17 15 7.84196 15 7.5C15 7.15804 14.8645 6.83 14.6232 6.58764H14.6238ZM7.49871 13.3408L1.65683 7.5L7.49871 1.65924L13.3406 7.5L7.49871 13.3408Z" fill="#E58D8D"/>
</svg>
