<svg width="36" height="34" viewBox="0 0 36 34" fill="none" xmlns="http://www.w3.org/2000/svg">
<g clip-path="url(#clip0_685_259)">
<path d="M27.7178 6.04443H18.4148L24.3344 13.4992L27.7178 6.04443ZM7.98675 6.04443L11.3702 13.4992L17.2898 6.04443H7.98675ZM17.8523 8.87799L13.3523 14.5444H22.3523L17.8523 8.87799ZM29.591 7.31014L26.3081 14.5444H34.1648L29.591 7.31014ZM6.11362 7.31014L1.46948 14.5444H9.39651L6.11362 7.31014ZM10.1657 16.6694H1.53979L17.2054 35.7944H17.2427L10.1657 16.6694ZM25.5389 16.6694L18.4619 35.7944H18.4992L34.1648 16.6694H25.5389ZM23.0125 16.6694H12.6921L17.8523 30.4819L23.0125 16.6694Z" fill="#FF5ADB"/>
</g>
<defs>
<clipPath id="clip0_685_259">
<rect width="36" height="34" fill="white"/>
</clipPath>
</defs>
</svg>
