<svg width="17" height="16" viewBox="0 0 17 16" fill="none" xmlns="http://www.w3.org/2000/svg">
<path d="M8.5 16V7.72414M8.5 8.24138V11.3448M8.5 8.24138C8.5 7.14393 8.04847 6.09143 7.24474 5.31542C6.44102 4.53941 5.35093 4.10345 4.21429 4.10345H1V7.2069C1 8.30434 1.45153 9.35684 2.25526 10.1329C3.05898 10.9089 4.14907 11.3448 5.28571 11.3448H8.5M8.5 8.24138H11.7143C12.8509 8.24138 13.941 7.80542 14.7447 7.02941C15.5485 6.25339 16 5.2009 16 4.10345V1H12.7857C11.6491 1 10.559 1.43596 9.75526 2.21197C8.95153 2.98798 8.5 4.04048 8.5 5.13793V8.24138ZM8.5 8.24138L12.7857 4.10345M8.5 11.3448L4.21429 7.2069" stroke="#7CD974" stroke-width="1.5"/>
</svg>
