<svg width="49" height="45" viewBox="0 0 49 45" fill="none" xmlns="http://www.w3.org/2000/svg">
<g clip-path="url(#clip0_685_263)">
<path d="M34.7178 12.0444H25.4148L31.3344 19.4992L34.7178 12.0444ZM14.9867 12.0444L18.3702 19.4992L24.2898 12.0444H14.9867ZM24.8523 14.878L20.3523 20.5444H29.3523L24.8523 14.878ZM36.591 13.3101L33.3081 20.5444H41.1648L36.591 13.3101ZM13.1136 13.3101L8.46948 20.5444H16.3965L13.1136 13.3101ZM17.1657 22.6694H8.53979L24.2054 41.7944H24.2427L17.1657 22.6694ZM32.5389 22.6694L25.4619 41.7944H25.4992L41.1648 22.6694H32.5389ZM30.0125 22.6694H19.6921L24.8523 36.4819L30.0125 22.6694Z" fill="black"/>
</g>
<defs>
<clipPath id="clip0_685_263">
<rect width="36" height="34" fill="white" transform="translate(7 6)"/>
</clipPath>
</defs>
</svg>
