<svg width="53" height="51" viewBox="0 0 53 51" fill="none" xmlns="http://www.w3.org/2000/svg">
<g clip-path="url(#clip0_617_254)">
<path fill-rule="evenodd" clip-rule="evenodd" d="M6.625 19.125C8.38206 19.125 10.0672 19.7966 11.3096 20.9922C12.552 22.1877 13.25 23.8092 13.25 25.5C13.25 27.1908 12.552 28.8123 11.3096 30.0078C10.0672 31.2033 8.38206 31.875 6.625 31.875C4.86794 31.875 3.18285 31.2033 1.94042 30.0078C0.697989 28.8123 0 27.1908 0 25.5C0 23.8092 0.697989 22.1877 1.94042 20.9922C3.18285 19.7966 4.86794 19.125 6.625 19.125ZM46.375 19.125C48.1321 19.125 49.8172 19.7966 51.0596 20.9922C52.302 22.1877 53 23.8092 53 25.5C53 27.1908 52.302 28.8123 51.0596 30.0078C49.8172 31.2033 48.1321 31.875 46.375 31.875C44.6179 31.875 42.9328 31.2033 41.6904 30.0078C40.448 28.8123 39.75 27.1908 39.75 25.5C39.75 23.8092 40.448 22.1877 41.6904 20.9922C42.9328 19.7966 44.6179 19.125 46.375 19.125ZM27.0989 19.125C28.856 19.125 30.5411 19.7966 31.7835 20.9922C33.0259 22.1877 33.7239 23.8092 33.7239 25.5C33.7239 27.1908 33.0259 28.8123 31.7835 30.0078C30.5411 31.2033 28.856 31.875 27.0989 31.875C25.3418 31.875 23.6567 31.2033 22.4143 30.0078C21.1719 28.8123 20.4739 27.1908 20.4739 25.5C20.4739 23.8092 21.1719 22.1877 22.4143 20.9922C23.6567 19.7966 25.3418 19.125 27.0989 19.125Z" fill="black"/>
</g>
<defs>
<clipPath id="clip0_617_254">
<rect width="53" height="51" fill="white"/>
</clipPath>
</defs>
</svg>
