<svg width="28" height="23" viewBox="0 0 28 23" fill="none" xmlns="http://www.w3.org/2000/svg">
<path fill-rule="evenodd" clip-rule="evenodd" d="M4.93979 16.5002C4.93979 16.7077 4.89892 16.9131 4.81951 17.1048C4.74011 17.2965 4.62373 17.4707 4.47701 17.6174C4.3303 17.7641 4.15612 17.8805 3.96442 17.9599C3.77273 18.0393 3.56727 18.0802 3.35979 18.0802C3.1523 18.0802 2.94684 18.0393 2.75515 17.9599C2.56345 17.8805 2.38927 17.7641 2.24256 17.6174C2.09584 17.4707 1.97946 17.2965 1.90006 17.1048C1.82065 16.9131 1.77979 16.7077 1.77979 16.5002C1.77979 16.0811 1.94625 15.6792 2.24256 15.3829C2.53886 15.0866 2.94074 14.9202 3.35979 14.9202C3.77883 14.9202 4.18071 15.0866 4.47701 15.3829C4.77332 15.6792 4.93979 16.0811 4.93979 16.5002ZM26.1998 16.5002C26.1998 16.9192 26.0333 17.3211 25.737 17.6174C25.4407 17.9137 25.0388 18.0802 24.6198 18.0802C24.2007 18.0802 23.7989 17.9137 23.5026 17.6174C23.2062 17.3211 23.0398 16.9192 23.0398 16.5002C23.0398 16.0811 23.2062 15.6792 23.5026 15.3829C23.7989 15.0866 24.2007 14.9202 24.6198 14.9202C25.0388 14.9202 25.4407 15.0866 25.737 15.3829C26.0333 15.6792 26.1998 16.0811 26.1998 16.5002Z" fill="#00A6ED"/>
<path fill-rule="evenodd" clip-rule="evenodd" d="M8.24984 6.27L11.4298 10.54L4.83984 11.3L6.95984 6.41C6.44984 6.21 6.08984 5.71 6.08984 5.13C6.08984 4.37 6.70984 3.75 7.46984 3.75C7.76396 3.75156 8.04991 3.84684 8.28618 4.022C8.52244 4.19716 8.69672 4.44309 8.78368 4.72405C8.87065 5.00501 8.86578 5.30639 8.76978 5.58439C8.67378 5.8624 8.49165 6.10256 8.24984 6.27ZM21.0098 6.41L23.1298 11.3L16.5398 10.54L19.7198 6.27C19.3598 6.02 19.1198 5.6 19.1198 5.13C19.1198 4.37 19.7398 3.75 20.4998 3.75C21.2598 3.75 21.8798 4.37 21.8798 5.13C21.8798 5.71 21.5198 6.21 21.0098 6.41Z" fill="#E19747"/>
<path d="M27.98 6.09009C27.98 5.33009 27.36 4.71009 26.6 4.71009C25.84 4.71009 25.22 5.33009 25.22 6.09009C25.22 6.37009 25.31 6.64009 25.45 6.85009C25.23 6.85009 25.01 6.90009 24.8 7.04009L20.87 9.58009C20.35 9.91009 19.67 9.79009 19.3 9.29009L14.93 3.36009C14.8989 3.31238 14.8619 3.26871 14.82 3.23009C15.1545 3.04593 15.4183 2.75576 15.5698 2.40525C15.7213 2.05474 15.7519 1.6638 15.6568 1.29397C15.5617 0.924147 15.3464 0.596443 15.0446 0.362451C14.7429 0.128458 14.3718 0.00146484 13.99 0.00146484C13.6082 0.00146484 13.2371 0.128458 12.9354 0.362451C12.6336 0.596443 12.4183 0.924147 12.3232 1.29397C12.2281 1.6638 12.2587 2.05474 12.4102 2.40525C12.5617 2.75576 12.8255 3.04593 13.16 3.23009C13.12 3.27009 13.08 3.31009 13.05 3.36009L8.68 9.29009C8.32 9.79009 7.63 9.91009 7.11 9.58009L3.18 7.04009C2.97 6.90009 2.75 6.85009 2.53 6.85009C2.68 6.63009 2.76 6.37009 2.76 6.09009C2.76 5.33009 2.14 4.71009 1.38 4.71009C0.62 4.71009 0 5.33009 0 6.09009C0 6.85009 0.62 7.47009 1.38 7.47009C1.43 7.47009 1.48 7.47009 1.52 7.46009C1.39 7.69009 1.34 7.96009 1.4 8.25009L4 21.2201C4.19 22.1501 5.01 22.8201 5.96 22.8201H22.02C22.97 22.8201 23.79 22.1501 23.98 21.2201L26.58 8.25009C26.64 7.96009 26.58 7.68009 26.46 7.46009C26.51 7.46009 26.56 7.47009 26.6 7.47009C27.36 7.47009 27.98 6.85009 27.98 6.09009Z" fill="#FFB02E"/>
<path d="M13.9902 19C14.6533 19 15.2892 18.7366 15.758 18.2678C16.2268 17.7989 16.4902 17.163 16.4902 16.5C16.4902 15.837 16.2268 15.2011 15.758 14.7322C15.2892 14.2634 14.6533 14 13.9902 14C13.3272 14 12.6913 14.2634 12.2225 14.7322C11.7536 15.2011 11.4902 15.837 11.4902 16.5C11.4902 17.163 11.7536 17.7989 12.2225 18.2678C12.6913 18.7366 13.3272 19 13.9902 19Z" fill="#00A6ED"/>
<path fill-rule="evenodd" clip-rule="evenodd" d="M9 16.5C9 16.8978 8.84196 17.2794 8.56066 17.5607C8.27936 17.842 7.89782 18 7.5 18C7.10218 18 6.72064 17.842 6.43934 17.5607C6.15804 17.2794 6 16.8978 6 16.5C6 16.1022 6.15804 15.7206 6.43934 15.4393C6.72064 15.158 7.10218 15 7.5 15C7.89782 15 8.27936 15.158 8.56066 15.4393C8.84196 15.7206 9 16.1022 9 16.5ZM22 16.5C22 16.8978 21.842 17.2794 21.5607 17.5607C21.2794 17.842 20.8978 18 20.5 18C20.1022 18 19.7206 17.842 19.4393 17.5607C19.158 17.2794 19 16.8978 19 16.5C19 16.1022 19.158 15.7206 19.4393 15.4393C19.7206 15.158 20.1022 15 20.5 15C20.8978 15 21.2794 15.158 21.5607 15.4393C21.842 15.7206 22 16.1022 22 16.5Z" fill="#F8312F"/>
</svg>
