<svg width="20" height="20" viewBox="0 0 20 20" fill="none" xmlns="http://www.w3.org/2000/svg">
<path d="M17.875 6.5H13.375C13.1098 6.5 12.8554 6.39464 12.6679 6.20711C12.4804 6.01957 12.375 5.76522 12.375 5.5C12.375 5.23478 12.4804 4.98043 12.6679 4.79289C12.8554 4.60536 13.1098 4.5 13.375 4.5H16.875V1C16.875 0.734784 16.9804 0.48043 17.1679 0.292893C17.3554 0.105357 17.6098 0 17.875 0C18.1402 0 18.3946 0.105357 18.5821 0.292893C18.7696 0.48043 18.875 0.734784 18.875 1V5.5C18.875 5.76522 18.7696 6.01957 18.5821 6.20711C18.3946 6.39464 18.1402 6.5 17.875 6.5Z" fill="black"/>
<path d="M9.99989 20C8.2442 20.0015 6.51906 19.5408 4.99791 18.6641C3.47676 17.7875 2.21323 16.5258 1.33436 15.0059C0.455481 13.486 -0.00775919 11.7615 -0.00878735 10.0059C-0.00981551 8.25017 0.451405 6.52516 1.3285 5.00426C2.20559 3.48336 3.46765 2.22018 4.98777 1.34174C6.50789 0.463288 8.23249 0.000533825 9.98817 4.61582e-07C11.7439 -0.000532902 13.4687 0.461173 14.9894 1.3387C16.51 2.21622 17.7729 3.47863 18.6509 4.999C18.7751 5.22787 18.8051 5.49616 18.7345 5.74683C18.664 5.99749 18.4985 6.21075 18.2731 6.34126C18.0478 6.47177 17.7805 6.50923 17.5279 6.44569C17.2754 6.38215 17.0576 6.22261 16.9209 6.001C15.9482 4.32457 14.3993 3.05884 12.5628 2.43958C10.7262 1.82032 8.72714 1.88974 6.93794 2.63492C5.14875 3.38009 3.69142 4.75021 2.83739 6.49008C1.98336 8.22995 1.79086 10.2209 2.29576 12.0922C2.80066 13.9634 3.96852 15.5874 5.58181 16.6615C7.19511 17.7356 9.14384 18.1867 11.065 17.9308C12.9862 17.6748 14.7489 16.7293 16.0247 15.2702C17.3005 13.8112 18.0025 11.9382 17.9999 10C17.9999 9.73478 18.1052 9.48043 18.2928 9.29289C18.4803 9.10535 18.7347 9 18.9999 9C19.2651 9 19.5195 9.10535 19.707 9.29289C19.8945 9.48043 19.9999 9.73478 19.9999 10C19.997 12.6513 18.9425 15.1931 17.0677 17.0678C15.193 18.9426 12.6512 19.9971 9.99989 20Z" fill="black"/>
</svg>
