<svg width="24" height="24" viewBox="0 0 24 24" fill="none" xmlns="http://www.w3.org/2000/svg">
<path d="M5 21C4.71667 21 4.47933 20.904 4.288 20.712C4.09667 20.52 4.00067 20.2827 4 20V18C4 17.7167 4.096 17.4793 4.288 17.288C4.48 17.0967 4.71733 17.0007 5 17H12C12.2833 17 12.521 17.096 12.713 17.288C12.905 17.48 13.0007 17.7173 13 18V20C13 20.2833 12.904 20.521 12.712 20.713C12.52 20.905 12.2827 21.0007 12 21H5ZM16 21C15.7167 21 15.4793 20.904 15.288 20.712C15.0967 20.52 15.0007 20.2827 15 20V18C15 17.7167 15.096 17.4793 15.288 17.288C15.48 17.0967 15.7173 17.0007 16 17H19C19.2833 17 19.521 17.096 19.713 17.288C19.905 17.48 20.0007 17.7173 20 18V20C20 20.2833 19.904 20.521 19.712 20.713C19.52 20.905 19.2827 21.0007 19 21H16ZM5 15C4.71667 15 4.47933 14.904 4.288 14.712C4.09667 14.52 4.00067 14.2827 4 14V12C4 11.7167 4.096 11.4793 4.288 11.288C4.48 11.0967 4.71733 11.0007 5 11H8C8.28333 11 8.521 11.096 8.713 11.288C8.905 11.48 9.00067 11.7173 9 12V14C9 14.2833 8.904 14.521 8.712 14.713C8.52 14.905 8.28267 15.0007 8 15H5ZM12 15C11.7167 15 11.4793 14.904 11.288 14.712C11.0967 14.52 11.0007 14.2827 11 14V12C11 11.7167 11.096 11.4793 11.288 11.288C11.48 11.0967 11.7173 11.0007 12 11H19C19.2833 11 19.521 11.096 19.713 11.288C19.905 11.48 20.0007 11.7173 20 12V14C20 14.2833 19.904 14.521 19.712 14.713C19.52 14.905 19.2827 15.0007 19 15H12ZM5.5 9C5.26667 9 5.11267 8.88767 5.038 8.663C4.96333 8.43833 5.01733 8.25067 5.2 8.1L10.8 3.9C10.9833 3.76667 11.175 3.66667 11.375 3.6C11.575 3.53333 11.7833 3.5 12 3.5C12.2167 3.5 12.425 3.53333 12.625 3.6C12.825 3.66667 13.0167 3.76667 13.2 3.9L18.8 8.1C18.9833 8.25 19.0377 8.43767 18.963 8.663C18.8883 8.88833 18.734 9.00067 18.5 9H5.5Z" fill="black"/>
</svg>
