<svg width="20" height="24" viewBox="0 0 20 24" fill="none" xmlns="http://www.w3.org/2000/svg">
<path d="M9.9993 0.0151367C10.185 0.0152524 10.3669 0.0756456 10.5248 0.189553C10.6827 0.30346 10.8103 0.466382 10.8933 0.660075L19.8933 21.6526C19.9776 21.8496 20.0123 22.0705 19.9935 22.2895C19.9747 22.5086 19.9031 22.717 19.787 22.8906C19.6709 23.0642 19.515 23.1959 19.3374 23.2705C19.1598 23.3451 18.9677 23.3596 18.7833 23.3122L9.9993 21.0357L1.2163 23.3122C1.03187 23.3599 0.839637 23.3456 0.66186 23.2711C0.484083 23.1966 0.328034 23.0649 0.211783 22.8913C0.0955317 22.7176 0.0238331 22.5091 0.00498867 22.2899C-0.0138558 22.0707 0.0209248 21.8497 0.105304 21.6526L9.1053 0.660075C9.18829 0.466382 9.31588 0.30346 9.47378 0.189553C9.63167 0.0756456 9.81364 0.0152524 9.9993 0.0151367ZM10.9993 18.9061L17.1653 20.5039L10.9993 6.12164V18.9061ZM8.9993 6.12164L2.8333 20.5039L8.9993 18.9061V6.12164Z" fill="black"/>
</svg>
