<svg width="14" height="14" viewBox="0 0 14 14" fill="none" xmlns="http://www.w3.org/2000/svg">
<path d="M0.719828 0.720058C0.860453 0.579607 1.05108 0.500718 1.24983 0.500718C1.44858 0.500718 1.6392 0.579607 1.77983 0.720058L6.99983 5.94006L12.2198 0.720058C12.3115 0.621333 12.4281 0.549162 12.5574 0.511148C12.6866 0.473134 12.8237 0.470684 12.9542 0.504057C13.0848 0.537431 13.2039 0.605391 13.299 0.700778C13.3941 0.796166 13.4618 0.915448 13.4948 1.04606C13.5281 1.17644 13.5258 1.31338 13.4879 1.44252C13.4501 1.57167 13.3782 1.68825 13.2798 1.78006L8.05983 7.00006L13.2798 12.2201C13.3786 12.3117 13.4507 12.4283 13.4887 12.5576C13.5268 12.6868 13.5292 12.8239 13.4958 12.9545C13.4625 13.085 13.3945 13.2041 13.2991 13.2992C13.2037 13.3944 13.0844 13.462 12.9538 13.4951C12.8234 13.5284 12.6865 13.526 12.5574 13.4882C12.4282 13.4503 12.3116 13.3784 12.2198 13.2801L6.99983 8.06006L1.77983 13.2801C1.63768 13.4127 1.44958 13.485 1.25519 13.4816C1.0608 13.4782 0.875308 13.3995 0.737828 13.2621C0.600355 13.1246 0.521641 12.9391 0.518283 12.7447C0.514925 12.5503 0.587186 12.3622 0.719828 12.2201L5.93983 7.00006L0.719828 1.78006C0.579378 1.63943 0.500488 1.44881 0.500488 1.25006C0.500488 1.05131 0.579378 0.860683 0.719828 0.720058Z" fill="#F7E1AB"/>
</svg>
